<svg xmlns="http://www.w3.org/2000/svg" xmlns:xlink="http://www.w3.org/1999/xlink" width="13.008" height="8.004" viewBox="0 0 13.008 8.004">
  <defs>
    <clipPath id="clip-path">
      <rect width="8.004" height="13.008" fill="none"/>
    </clipPath>
  </defs>
  <g id="Icons_chevron-right" data-name="Icons / chevron-right" transform="translate(13.008) rotate(90)" clip-path="url(#clip-path)">
    <g id="icon-chevron-right" transform="translate(0)">
      <path id="Path" d="M8,6.5a1.055,1.055,0,0,1-.331.769L1.959,12.69a1.191,1.191,0,0,1-1.108.282A1.119,1.119,0,0,1,.039,12.2a1.049,1.049,0,0,1,.3-1.051L5.25,6.5.336,1.857a1.048,1.048,0,0,1,0-1.538,1.192,1.192,0,0,1,1.623,0L7.673,5.735A1.055,1.055,0,0,1,8,6.5Z" transform="translate(0)" fill="#fff"/>
    </g>
  </g>
</svg>
